<svg xmlns="http://www.w3.org/2000/svg" width="668.306" height="230.212" viewBox="0 0 626.537 215.824"><g font-family="sans-serif" letter-spacing="0" word-spacing="0"><g style="line-height:0%"><path d="M85.13 168.234V1.448h81.651v18.99h-63.897v147.796H85.131zM232.26 57.527q-13.008 0-20.567 12.959-7.559 12.847-7.559 35.301t7.471 35.413q7.559 12.847 20.654 12.847 12.92 0 20.479-12.959 7.559-12.958 7.559-35.3 0-22.232-7.559-35.19-7.559-13.07-20.479-13.07zm0-17.427q21.093 0 33.134 17.427t12.041 48.26q0 30.721-12.04 48.26-12.042 17.427-33.136 17.427-21.181 0-33.222-17.427-11.953-17.539-11.953-48.26 0-30.833 11.953-48.26Q211.077 40.1 232.259 40.1zm87.539 109.367v66.357h-16.26V43.116h16.26v18.991q5.097-11.17 12.832-16.533 7.822-5.474 18.632-5.474 17.93 0 29.092 18.098 11.25 18.097 11.25 47.59 0 29.491-11.25 47.589-11.162 18.097-29.092 18.097-10.81 0-18.632-5.362-7.735-5.474-12.832-16.645zm55.02-43.68q0-22.678-7.384-35.525-7.295-12.958-20.127-12.958-12.832 0-20.215 12.958-7.294 12.847-7.294 35.525 0 22.678 7.294 35.636 7.383 12.847 20.215 12.847t20.127-12.847q7.383-12.958 7.383-35.636zm81.737-48.26q-13.007 0-20.566 12.959-7.559 12.847-7.559 35.301t7.471 35.413q7.559 12.847 20.654 12.847 12.92 0 20.479-12.959 7.558-12.958 7.558-35.3 0-22.232-7.558-35.19-7.559-13.07-20.479-13.07zm0-17.427q21.094 0 33.135 17.427 12.041 17.427 12.041 48.26 0 30.721-12.04 48.26-12.042 17.427-33.136 17.427-21.181 0-33.222-17.427-11.953-17.539-11.953-48.26 0-30.833 11.953-48.26Q435.374 40.1 456.556 40.1zm93.868 111.713h46.933V59.538h-34.014v15.64q0 46.025-10.37 70.602l-2.55 6.033zm-23.467 0q7.998-4.469 11.513-13.964 8.614-23.572 8.614-71.05V43.116h66.533v108.697h12.92v48.036h-12.92v-31.615h-79.805v31.615h-12.92v-48.036h6.065z" style="-inkscape-font-specification:'sans-serif Medium'" font-weight="500" font-size="202.933"/></g><g style="line-height:100%;-inkscape-font-specification:sans-serif"><path d="M1.751 166.168l-.074-7.037 29.771-.162-.271-25.57-29.772.162-.075-7.037 72.63-.396.074 7.037-34.587.189.271 25.57 34.588-.189.075 7.037-72.63.396zm8.926-71.085l36.246 9.348-.203-19.125-36.043 9.777zm-9.639 4.024L.954 91.13l72.418-20.22.078 7.316-18.581 4.84.25 23.445 18.681 4.636.08 7.42-72.842-19.46zm63.616-70.373l-.22-20.589-64.36.351L0 1.46l72.63-.396.662 62.289-72.63.396-.075-7.037 64.36-.351-.219-20.59-64.36.352-.074-7.037 64.36-.351z" style="-inkscape-font-specification:sans-serif" font-weight="400" font-size="180"/></g><g style="line-height:0%"><path d="M213.749 3.042v24.61h-4.065V6.271h-13.118v21.38h-4.065V3.041h21.248zM226.01 23.96v13.05h-4.065V3.041h4.064v3.736q1.275-2.197 3.209-3.252 1.955-1.077 4.658-1.077 4.482 0 7.273 3.56 2.812 3.56 2.812 9.36 0 5.801-2.812 9.36-2.79 3.56-7.273 3.56-2.703 0-4.658-1.054-1.934-1.077-3.209-3.274zm13.754-8.592q0-4.46-1.845-6.987-1.824-2.549-5.032-2.549t-5.054 2.55q-1.824 2.526-1.824 6.986t1.824 7.01q1.846 2.527 5.054 2.527t5.032-2.527q1.845-2.55 1.845-7.01zm20.435-9.492q-3.252 0-5.142 2.549-1.89 2.527-1.89 6.943 0 4.417 1.868 6.966 1.89 2.527 5.164 2.527 3.23 0 5.12-2.55 1.89-2.548 1.89-6.943 0-4.372-1.89-6.921-1.89-2.57-5.12-2.57zm0-3.428q5.273 0 8.284 3.428 3.01 3.428 3.01 9.492 0 6.043-3.01 9.493-3.01 3.427-8.284 3.427-5.295 0-8.306-3.427-2.988-3.45-2.988-9.493 0-6.064 2.988-9.492 3.01-3.428 8.306-3.428zm39.023 11.888v1.977h-18.588q.263 4.175 2.504 6.372 2.264 2.176 6.285 2.176 2.329 0 4.504-.572 2.197-.571 4.35-1.714V26.4q-2.175.923-4.46 1.406-2.285.483-4.636.483-5.889 0-9.338-3.427-3.428-3.428-3.428-9.273 0-6.042 3.252-9.58 3.274-3.56 8.81-3.56 4.967 0 7.845 3.208 2.9 3.187 2.9 8.68zm-4.043-1.187q-.043-3.318-1.867-5.295-1.802-1.978-4.79-1.978-3.384 0-5.428 1.912-2.021 1.911-2.329 5.383l14.414-.022zm10.525-10.107h4.021v11.557L321.13 3.042h4.966l-9.404 9.514 10.612 15.095h-4.526l-8.723-12.414-4.329 4.394v8.02h-4.02V3.041zm24.39 0h23.577v3.23h-9.8v21.38h-3.977V6.271h-9.8v-3.23zm28.96 0h4.065v10.041h13.118V3.042h4.064v24.61h-4.064v-11.34h-13.118V27.65h-4.065V3.041zm40.781 12.238q-4.9 0-6.79 1.121-1.889 1.12-1.889 3.823 0 2.154 1.406 3.428 1.428 1.253 3.867 1.253 3.362 0 5.384-2.374 2.043-2.395 2.043-6.35v-.9h-4.02zm8.064-1.67v14.041h-4.043v-3.735q-1.384 2.241-3.45 3.318-2.065 1.054-5.053 1.054-3.78 0-6.02-2.11-2.22-2.13-2.22-5.69 0-4.153 2.769-6.262 2.79-2.11 8.305-2.11h5.67v-.395q0-2.79-1.847-4.307-1.823-1.538-5.141-1.538-2.11 0-4.109.506-2 .505-3.845 1.516V4.162q2.219-.857 4.306-1.274 2.088-.44 4.065-.44 5.34 0 7.976 2.769 2.637 2.769 2.637 8.394zm12.415-3.471q0 1.824 1.406 2.856 1.406 1.033 4.02 1.033h5.45V6.272h-5.45q-2.614 0-4.02 1.01-1.406 1.011-1.406 2.857zm-5.757 17.512l7.515-10.788q-2.55-.572-4.241-2.066-1.692-1.516-1.692-4.658 0-3.56 2.351-5.317 2.373-1.78 7.141-1.78h9.624v24.61h-4.065V17.257h-5.032l-7.25 10.393h-4.351zm42.934 0V3.041h17.359v3.23h-13.294v21.38h-4.065zm27.708-3.691v13.05h-4.065V3.041h4.065v3.736q1.274-2.197 3.208-3.252 1.956-1.077 4.658-1.077 4.483 0 7.273 3.56 2.813 3.56 2.813 9.36 0 5.801-2.813 9.36-2.79 3.56-7.273 3.56-2.702 0-4.658-1.054-1.934-1.077-3.208-3.274zm13.755-8.592q0-4.46-1.846-6.987-1.824-2.549-5.032-2.549t-5.053 2.55q-1.824 2.526-1.824 6.986t1.824 7.01q1.845 2.527 5.053 2.527t5.032-2.527q1.846-2.55 1.846-7.01zm21.138 14.568q-1.714 4.395-3.34 5.735-1.626 1.34-4.35 1.34h-3.23v-3.383h2.372q1.67 0 2.593-.791t2.043-3.736l.725-1.845-9.953-24.214h4.285l7.69 19.248 7.69-19.248h4.285l-10.81 26.894zm37.485-26.894v24.61h-4.065V6.271h-13.118v21.38h-4.065V3.041h21.248zm29.443 0v24.61h-4.065V6.271h-13.117v21.38h-4.065V3.041h21.247zm19.534 12.238q-4.9 0-6.79 1.121-1.89 1.12-1.89 3.823 0 2.154 1.407 3.428 1.428 1.253 3.867 1.253 3.362 0 5.383-2.374 2.044-2.395 2.044-6.35v-.9h-4.021zm8.064-1.67v14.041h-4.043v-3.735q-1.384 2.241-3.45 3.318-2.065 1.054-5.053 1.054-3.78 0-6.021-2.11-2.22-2.13-2.22-5.69 0-4.153 2.77-6.262 2.79-2.11 8.305-2.11h5.669v-.395q0-2.79-1.846-4.307-1.824-1.538-5.141-1.538-2.11 0-4.11.506-1.999.505-3.844 1.516V4.162q2.219-.857 4.306-1.274 2.088-.44 4.065-.44 5.34 0 7.976 2.769 2.637 2.769 2.637 8.394z" style="line-height:100%" font-weight="400" font-size="45"/></g></g></svg>